<?xml version="1.0" standalone="no"?>
<!DOCTYPE svg PUBLIC "-//W3C//DTD SVG 20010904//EN"
 "http://www.w3.org/TR/2001/REC-SVG-20010904/DTD/svg10.dtd">
<svg version="1.0" xmlns="http://www.w3.org/2000/svg"
 width="1160.000000pt" height="772.000000pt" viewBox="0 0 1160.000000 772.000000"
 preserveAspectRatio="xMidYMid meet">
<metadata>
Created by potrace 1.16, written by Peter Selinger 2001-2019
</metadata>
<g transform="translate(0.000000,772.000000) scale(0.100000,-0.100000)"
fill="#000000" stroke="none">
<path d="M0 6691 l0 -1030 28 -3 c26 -3 27 -5 30 -73 2 -38 7 -74 13 -79 20
-21 32 15 33 93 l1 80 -34 3 c-40 4 -56 28 -18 28 43 0 57 10 57 41 0 17 6 32
15 35 20 8 45 -13 45 -37 0 -15 7 -19 31 -19 47 0 72 -17 59 -40 -13 -24 -38
-26 -46 -5 -4 8 -17 15 -30 15 -22 0 -24 -4 -25 -57 -2 -60 -2 -95 0 -125 1
-20 26 -24 37 -6 4 7 8 39 8 73 1 57 2 60 26 60 22 0 25 -4 26 -40 1 -22 2
-55 3 -72 1 -21 6 -33 15 -33 22 0 29 34 21 101 -7 58 -7 59 18 59 34 0 38 -8
38 -85 1 -68 6 -79 29 -65 9 6 13 26 13 62 -2 64 4 88 22 88 16 0 26 -35 18
-70 -3 -15 0 -31 6 -34 7 -5 11 2 11 18 0 39 46 86 85 86 58 0 63 -65 9 -116
-30 -29 -33 -35 -18 -41 21 -8 46 7 59 35 11 24 20 28 30 12 9 -14 -22 -68
-46 -81 -30 -16 -69 -2 -108 38 l-34 35 -18 -35 c-10 -19 -25 -37 -34 -41 -19
-7 -55 10 -55 26 0 6 -10 2 -23 -10 -27 -25 -50 -28 -66 -8 -10 12 -16 12 -41
-2 -27 -16 -30 -15 -49 2 -20 18 -22 18 -39 3 -23 -21 -41 -21 -63 -1 -10 9
-23 13 -28 9 -13 -8 -14 -84 -2 -104 6 -9 6 -22 1 -31 -6 -11 -5 -21 2 -28 9
-9 9 -12 0 -12 -9 0 -12 -452 -12 -2004 l0 -2005 28 -3 c26 -3 27 -5 30 -73 5
-126 43 -114 46 14 l1 81 -37 0 c-53 0 -51 25 2 34 36 6 40 9 40 36 0 36 15
46 45 30 15 -8 21 -18 18 -30 -4 -16 2 -19 38 -22 37 -2 45 -7 47 -26 4 -29
-26 -42 -43 -19 -7 10 -22 17 -34 17 -18 0 -21 -6 -23 -52 -4 -111 1 -150 22
-146 11 2 16 21 20 73 5 68 6 70 32 71 28 1 28 1 25 -62 -1 -41 3 -67 11 -76
22 -22 32 10 28 85 l-5 68 27 -3 c25 -3 27 -7 30 -58 3 -69 10 -100 22 -100
14 0 24 40 24 100 1 48 3 55 21 55 18 0 20 -6 18 -48 -3 -54 12 -64 21 -14 10
53 104 93 120 51 17 -43 -15 -114 -51 -114 -20 0 -11 -24 11 -28 23 -5 56 26
56 51 0 16 3 17 15 7 22 -18 19 -34 -14 -69 -40 -43 -71 -41 -123 10 l-42 40
-18 -35 c-23 -44 -56 -56 -79 -28 -16 21 -17 21 -34 2 -21 -23 -48 -26 -64 -6
-10 12 -16 12 -41 -2 -27 -16 -30 -15 -49 2 -20 18 -22 18 -39 3 -23 -21 -41
-21 -63 -1 -10 9 -23 13 -28 9 -14 -8 -14 -92 -1 -100 6 -3 6 -15 0 -29 -5
-15 -5 -27 3 -35 8 -8 8 -11 -1 -11 -9 0 -12 -112 -12 -475 l0 -475 882 0
c485 0 878 4 873 9 -6 4 -82 55 -170 113 -88 58 -301 198 -473 311 -171 114
-317 207 -323 207 -13 0 -8 32 6 37 8 2 174 -99 220 -134 14 -11 96 -65 117
-78 10 -5 34 -22 55 -36 21 -15 139 -93 263 -174 124 -81 239 -157 255 -169
17 -11 52 -35 80 -53 l50 -33 1445 0 1445 0 50 33 c28 18 64 42 80 53 17 12
131 88 255 169 124 81 242 159 263 174 21 14 45 31 55 36 21 13 103 67 117 78
46 35 212 136 220 134 14 -5 19 -37 5 -37 -6 0 -183 -114 -393 -253 -210 -139
-426 -282 -480 -317 l-99 -65 881 -3 c485 -1 1277 -1 1762 0 l881 3 -99 65
c-54 35 -270 178 -480 317 -210 139 -387 253 -393 253 -14 0 -9 32 5 37 8 2
174 -99 220 -134 14 -11 96 -65 117 -78 10 -5 34 -22 55 -36 21 -15 139 -93
263 -174 124 -81 239 -157 255 -169 17 -11 52 -35 80 -53 l50 -33 1445 0 1445
0 50 33 c28 18 66 44 86 58 19 13 68 44 107 69 l71 45 1 990 0 990 -198 130
c-108 71 -345 227 -525 347 -180 120 -333 218 -338 218 -6 0 -5 8 1 20 l11 21
37 -23 c20 -12 39 -24 42 -27 3 -4 12 -10 21 -16 58 -37 766 -505 819 -542 30
-21 71 -48 92 -61 l38 -23 0 1146 0 1147 -37 -23 c-21 -13 -123 -80 -228 -149
-495 -330 -762 -503 -777 -508 -11 -3 -18 1 -18 10 0 8 147 113 333 235 183
121 379 251 436 289 57 38 111 74 120 79 8 6 20 15 27 20 6 6 41 28 77 50 l66
40 0 990 1 990 -243 160 c-133 88 -369 244 -525 347 -156 103 -288 188 -293
188 -13 0 -11 16 4 28 11 10 60 -14 112 -55 56 -45 218 -142 227 -137 6 4 8 3
4 -4 -4 -6 30 -34 81 -68 49 -31 140 -91 203 -132 63 -41 147 -97 186 -123 39
-27 75 -45 79 -41 5 4 5 2 2 -4 -5 -9 40 -39 52 -34 2 1 7 -2 10 -7 6 -8 66
-53 89 -67 9 -6 12 109 12 559 l0 565 -591 0 -592 -1 -19 -24 c-11 -14 -26
-25 -35 -25 -20 0 -11 -24 11 -28 20 -4 56 25 56 45 0 15 16 17 25 3 10 -16
-26 -68 -55 -80 -34 -14 -71 0 -93 34 -18 27 -57 36 -57 13 0 -15 -41 -57 -55
-57 -5 0 -16 7 -26 16 -16 14 -20 14 -43 -1 -23 -15 -29 -16 -48 -3 -19 13
-25 13 -49 -1 -25 -14 -29 -14 -47 2 -18 17 -21 17 -50 0 -29 -17 -31 -17 -51
1 -20 18 -22 18 -41 1 -17 -15 -24 -16 -45 -7 -14 6 -25 17 -25 23 0 6 -16 1
-36 -12 -32 -19 -40 -20 -75 -10 -28 9 -44 9 -59 1 -42 -23 -81 12 -84 73 -2
45 -23 44 -42 -2 -28 -71 -102 -105 -168 -77 -36 15 -76 67 -76 98 0 17 -137
18 -2686 18 l-2686 0 -20 -25 c-11 -14 -26 -25 -35 -25 -20 0 -11 -24 11 -28
20 -4 56 25 56 45 0 15 16 17 25 3 10 -16 -26 -68 -55 -80 -34 -14 -71 0 -93
34 -18 27 -57 36 -57 13 0 -15 -41 -57 -55 -57 -5 0 -16 7 -26 16 -16 14 -20
14 -43 -1 -23 -15 -29 -16 -48 -3 -19 13 -25 13 -49 -1 -25 -14 -29 -14 -47 2
-18 17 -21 17 -50 0 -29 -17 -31 -17 -51 1 -20 18 -22 18 -41 1 -17 -15 -24
-16 -45 -7 -14 6 -25 17 -25 23 0 6 -16 1 -36 -12 -32 -19 -40 -20 -75 -10
-28 9 -44 9 -59 1 -42 -23 -81 12 -84 73 -2 45 -23 44 -42 -2 -28 -71 -102
-105 -168 -77 -36 15 -76 67 -76 98 0 17 -75 18 -1335 18 l-1335 0 0 -1029z
m2590 558 c0 -5 -4 -9 -9 -9 -5 0 -117 -72 -249 -159 -132 -88 -318 -211 -414
-274 -95 -63 -382 -253 -638 -422 -256 -169 -471 -308 -479 -309 -45 -3 -2 35
154 139 96 64 173 121 170 126 -4 5 2 6 11 2 13 -5 15 -3 9 7 -5 8 -4 11 3 6
6 -3 37 11 69 32 32 21 108 71 170 112 62 40 109 78 106 83 -3 6 -1 7 6 3 10
-7 106 54 123 79 4 5 8 6 8 2 0 -5 13 0 29 9 17 10 27 22 24 28 -3 6 -3 8 2 4
4 -4 40 14 79 41 39 26 123 82 186 123 63 41 154 101 203 132 51 34 85 62 81
68 -4 7 -2 8 4 4 9 -5 171 92 227 137 52 41 101 65 112 55 7 -6 13 -14 13 -19z
m1475 -15 c17 -9 32 -20 35 -23 16 -21 213 -140 222 -135 6 4 8 3 4 -4 -4 -6
30 -34 81 -68 49 -31 140 -91 203 -132 63 -41 147 -97 186 -123 39 -27 75 -45
79 -41 5 4 5 2 2 -4 -6 -10 25 -31 47 -32 5 0 12 -4 15 -9 16 -23 112 -84 122
-77 7 4 9 3 5 -4 -3 -6 20 -26 56 -48 35 -21 65 -40 68 -44 3 -3 32 -23 65
-44 33 -22 79 -52 103 -68 24 -15 48 -25 54 -22 7 5 8 2 3 -6 -6 -10 -4 -12 9
-7 9 4 15 3 12 -2 -3 -5 73 -62 170 -126 155 -104 198 -142 153 -139 -8 1
-223 140 -479 309 -256 169 -543 359 -638 422 -96 63 -282 186 -414 274 -132
87 -244 159 -249 159 -13 0 -11 14 3 28 9 9 17 9 32 -3 12 -8 35 -22 51 -31z
m5085 15 c0 -5 -4 -9 -9 -9 -5 0 -117 -72 -249 -159 -132 -88 -318 -211 -414
-274 -95 -63 -382 -253 -638 -422 -256 -169 -471 -308 -479 -309 -45 -3 -2 35
154 139 96 64 173 121 170 126 -4 5 2 6 11 2 13 -5 15 -3 9 7 -5 8 -4 11 3 6
6 -3 37 11 69 32 32 21 108 71 170 112 62 40 109 78 106 83 -3 6 -1 7 6 3 10
-7 106 54 123 79 4 5 8 6 8 2 0 -5 13 0 29 9 17 10 27 22 24 28 -3 6 -3 8 2 4
4 -4 40 14 79 41 39 26 123 82 186 123 63 41 154 101 203 132 51 34 85 62 81
68 -4 7 -2 8 4 4 9 -5 171 92 227 137 52 41 101 65 112 55 7 -6 13 -14 13 -19z
m-2432 -1471 c7 -7 12 -20 12 -30 0 -13 8 -18 31 -18 47 0 72 -17 59 -40 -13
-24 -38 -26 -46 -5 -4 8 -17 15 -30 15 -22 0 -24 -4 -25 -57 -2 -60 -2 -95 0
-125 1 -20 26 -24 37 -6 4 7 8 39 8 73 1 57 2 60 26 60 22 0 25 -4 26 -40 1
-22 2 -55 3 -72 1 -21 6 -33 15 -33 22 0 29 34 21 101 -7 58 -7 59 18 59 34 0
38 -8 38 -85 1 -68 6 -79 29 -65 9 6 13 26 13 62 -2 64 4 88 22 88 16 0 26
-35 18 -70 -3 -15 0 -31 6 -34 7 -5 11 2 11 18 0 39 46 86 85 86 58 0 63 -65
9 -116 -30 -29 -33 -35 -18 -41 21 -8 46 7 59 35 11 24 20 28 30 12 9 -14 -22
-68 -46 -81 -30 -16 -69 -2 -108 38 l-34 35 -18 -35 c-10 -19 -25 -37 -34 -41
-19 -7 -55 10 -55 26 0 6 -10 2 -23 -10 -27 -25 -50 -28 -66 -8 -10 12 -16 12
-41 -2 -27 -16 -30 -15 -49 2 -20 18 -22 18 -39 3 -10 -10 -25 -17 -32 -17 -7
0 -22 7 -32 17 -17 15 -19 15 -38 -2 -17 -15 -24 -16 -45 -7 -14 6 -25 16 -25
22 0 5 -15 1 -32 -10 -39 -23 -54 -25 -89 -6 -22 11 -29 11 -44 0 -51 -37 -91
8 -88 98 2 31 -1 59 -6 62 -4 3 -16 -22 -25 -56 -43 -153 -200 -172 -256 -31
-32 82 32 200 116 213 40 6 47 4 64 -18 23 -29 26 -55 7 -70 -17 -15 -32 -3
-41 31 -15 63 -86 -11 -86 -90 0 -100 62 -143 128 -88 34 28 61 110 43 128 -6
6 -11 19 -11 29 0 25 46 25 53 -1 3 -11 17 -21 39 -25 l34 -6 0 -72 c-1 -58 2
-73 15 -76 12 -2 15 8 15 52 -1 44 4 59 23 80 50 53 119 20 100 -47 -5 -18
-20 -42 -34 -54 -30 -26 -30 -29 -7 -35 23 -6 55 16 57 39 1 10 7 31 14 46 6
16 11 31 11 35 1 19 53 43 88 40 l37 -3 3 -70 c2 -38 7 -74 13 -79 20 -21 32
15 33 93 l1 80 -34 3 c-40 4 -56 28 -18 28 42 0 57 10 57 39 0 41 22 55 48 29z
m-5641 -917 c147 -98 338 -223 423 -279 85 -56 160 -105 166 -109 5 -4 17 -12
26 -18 8 -5 62 -41 119 -79 608 -402 769 -512 769 -524 0 -9 -7 -13 -17 -10
-10 3 -173 108 -363 233 -190 126 -444 294 -565 373 -121 80 -359 237 -528
349 -169 111 -312 203 -317 203 -6 0 -10 6 -10 13 0 15 9 27 21 27 4 0 128
-80 276 -179z m4701 156 c2 -9 -1 -17 -7 -17 -5 0 -137 -84 -293 -187 -800
-528 -1054 -695 -1060 -701 -4 -4 104 -6 240 -4 l247 2 5 -26 c7 -35 0 -144
-8 -143 -4 1 -51 1 -104 0 l-98 -1 0 -190 0 -190 -90 0 -90 0 0 190 0 190
-104 0 -105 0 -3 50 -3 50 -70 -46 c-78 -52 -115 -83 -115 -96 0 -5 5 -6 10
-3 7 4 10 -77 10 -234 0 -154 -4 -241 -10 -241 -5 0 -10 -17 -10 -37 0 -28 -3
-34 -10 -23 -8 12 -10 9 -10 -13 0 -16 -4 -26 -10 -22 -5 3 -10 -1 -10 -10 0
-9 -4 -13 -10 -10 -5 3 -10 -1 -10 -10 0 -9 -9 -19 -20 -22 -11 -3 -20 -9 -20
-14 0 -5 -9 -9 -20 -9 -11 0 -20 -4 -20 -10 0 -5 -21 -10 -47 -10 -34 0 -44
-3 -33 -10 9 -6 -36 -10 -131 -12 -158 -3 -182 -1 -174 13 4 5 -2 9 -12 9 -10
0 -35 8 -55 18 -30 16 -38 17 -54 5 -24 -17 -39 -16 -59 3 -15 15 -17 15 -34
0 -22 -20 -40 -20 -63 1 -17 15 -19 15 -38 -2 -17 -15 -24 -16 -45 -7 -14 6
-25 16 -25 21 0 5 -18 0 -39 -12 -37 -20 -41 -21 -73 -5 -29 13 -37 14 -53 2
-52 -38 -91 7 -88 103 1 35 -1 63 -5 63 -4 0 -15 -26 -24 -58 -22 -75 -49
-109 -99 -122 -78 -21 -141 20 -160 106 -11 50 -11 56 17 111 35 68 85 101
131 86 37 -13 62 -56 47 -80 -17 -27 -38 -21 -44 12 -13 74 -90 1 -90 -84 0
-103 77 -149 134 -81 33 40 52 106 35 126 -16 19 -4 44 21 44 13 0 20 -7 20
-20 0 -15 7 -20 28 -20 42 0 48 -10 47 -85 0 -60 3 -70 19 -73 16 -3 18 0 12
30 -7 41 7 96 31 114 20 15 62 18 79 6 36 -24 11 -112 -35 -127 -29 -9 -16
-25 21 -25 22 0 29 4 25 14 -4 10 -1 13 7 10 7 -3 13 2 13 10 0 37 28 98 51
110 l24 12 -40 42 c-22 23 -46 42 -52 42 -7 0 -25 14 -41 31 -17 19 -35 29
-44 25 -8 -3 -15 0 -15 7 0 7 -16 21 -35 31 -19 11 -35 23 -35 28 0 4 -7 8
-15 8 -8 0 -15 5 -15 10 0 6 -5 10 -10 10 -6 0 -22 11 -35 25 -24 24 -25 28
-25 180 0 102 3 154 10 150 6 -3 10 3 10 14 0 12 5 21 10 21 12 0 9 22 -5 33
-6 5 -3 7 6 4 9 -3 28 6 42 19 14 13 33 24 42 24 8 0 15 6 15 13 0 9 10 12 31
9 22 -3 30 -1 25 7 -5 7 7 11 38 11 l46 0 0 -213 0 -213 88 -1 c93 -1 149 -9
169 -25 7 -6 19 -8 28 -5 8 4 17 1 21 -5 4 -7 3 -8 -4 -4 -7 4 -12 2 -12 -5 0
-6 8 -9 20 -6 13 3 20 0 20 -9 0 -8 5 -14 10 -14 6 0 10 -10 10 -22 0 -19 2
-20 10 -8 8 12 10 11 10 -7 0 -13 5 -23 10 -23 6 0 10 -9 10 -20 0 -11 5 -20
10 -20 6 0 10 -31 10 -72 0 -65 2 -70 13 -49 11 24 17 25 102 26 114 2 155 18
149 58 -1 9 2 17 7 17 5 0 9 130 9 310 l0 310 46 0 c27 0 43 -4 39 -10 -4 -6
7 -10 25 -10 18 0 29 -4 25 -10 -3 -5 3 -10 15 -10 12 0 18 -4 15 -10 -6 -9 8
-14 28 -11 4 0 7 -4 7 -10 0 -5 5 -7 12 -3 6 4 8 3 4 -4 -3 -6 1 -17 9 -25 8
-9 15 -23 15 -32 0 -9 5 -13 10 -10 6 4 10 -8 10 -29 0 -40 7 -40 75 3 57 37
68 48 52 55 -6 3 0 3 16 0 17 -4 27 -2 27 6 0 6 5 8 10 5 6 -3 10 3 10 14 0
14 6 21 18 21 15 0 117 65 456 289 38 25 76 51 85 56 8 6 20 14 25 18 6 4 121
80 256 168 135 89 324 214 420 279 96 65 182 118 190 117 8 -1 16 -10 18 -20z
m1859 -156 c147 -98 338 -223 423 -279 85 -56 160 -105 166 -109 5 -4 17 -12
26 -18 26 -17 211 -139 556 -368 182 -121 332 -227 332 -235 0 -9 -7 -13 -17
-10 -10 3 -166 103 -348 223 -181 120 -436 288 -565 373 -129 86 -374 247
-543 359 -169 112 -312 203 -317 203 -6 0 -10 6 -10 13 0 15 9 27 21 27 4 0
128 -80 276 -179z m-3807 -467 c0 -79 -4 -119 -12 -127 -23 -22 -126 -87 -138
-87 -6 0 -8 -4 -5 -10 3 -5 18 -10 32 -10 22 0 24 2 13 15 -11 13 -10 14 3 9
17 -6 47 16 47 34 0 6 10 8 22 4 14 -3 19 -2 14 6 -4 7 -1 12 9 12 9 0 13 5
10 10 -3 6 3 10 15 10 12 0 18 5 15 10 -3 6 1 10 9 10 9 0 16 5 16 10 0 6 7
10 15 10 10 0 15 -10 15 -27 0 -14 -3 -24 -6 -20 -9 9 -54 -39 -54 -58 0 -8
-4 -15 -10 -15 -6 0 -10 -108 -10 -305 l0 -306 -25 -24 c-15 -16 -36 -25 -55
-25 -18 0 -29 -4 -25 -10 4 -6 -10 -10 -34 -10 l-40 0 -1 319 0 320 22 4 23 4
-22 8 c-21 7 -21 12 -23 181 l-1 174 91 0 90 0 0 -116z m-223 -19 c17 -18 18
-186 1 -203 -7 -7 -34 -12 -60 -12 -32 0 -48 -4 -48 -12 0 -10 -2 -10 -8 -1
-6 9 -12 7 -22 -7 -8 -11 -22 -20 -32 -20 -16 0 -18 12 -18 133 0 74 2 136 4
138 10 10 170 -4 183 -16z m-221 -215 c2 -82 -1 -97 -17 -111 -19 -16 -19 -17
1 -22 19 -5 20 -13 20 -121 0 -104 -2 -116 -17 -116 -15 0 -15 -2 -4 -9 10 -6
-19 -11 -81 -13 l-97 -3 -1 248 -1 248 98 -3 98 -3 1 -95z m239 -25 c-6 -3 -9
-89 -7 -237 3 -236 0 -254 -35 -241 -7 3 -13 11 -13 17 0 12 -44 56 -56 56 -3
0 -12 7 -21 15 -8 8 -19 13 -24 10 -5 -4 -9 -1 -9 4 0 6 -9 11 -20 11 -19 0
-20 7 -20 161 0 104 3 158 10 154 6 -3 10 1 10 10 0 9 5 13 10 10 6 -3 10 -1
10 4 0 6 6 10 13 9 6 -2 11 2 10 8 -1 7 25 11 75 12 42 1 73 -1 67 -3z m1863
-43 c3 -10 7 -10 20 0 13 11 14 11 8 0 -5 -8 0 -20 13 -31 12 -10 21 -24 21
-30 0 -7 4 -10 9 -6 6 3 11 -36 13 -95 2 -79 0 -100 -11 -100 -9 0 -12 -8 -9
-24 4 -17 1 -23 -9 -19 -8 3 -13 -2 -13 -17 0 -11 5 -18 10 -15 6 3 10 -4 10
-17 0 -18 2 -20 10 -8 7 10 10 -14 10 -77 l0 -93 -80 0 -80 0 0 50 c0 28 -4
50 -10 50 -5 0 -10 7 -10 15 0 13 -21 15 -132 15 l-133 0 3 -65 4 -65 -81 0
-81 0 -1 245 c-1 135 -1 256 -1 270 0 14 0 27 1 30 1 3 117 4 258 2 199 -1
257 -5 261 -15z m602 13 c13 -4 20 -15 20 -31 0 -13 5 -24 10 -24 6 0 10 -9
10 -20 0 -11 5 -20 10 -20 6 0 10 -9 10 -20 0 -11 6 -19 13 -17 7 1 11 -7 9
-20 -2 -13 2 -23 7 -23 6 0 11 -9 11 -20 0 -11 5 -20 10 -20 6 0 10 -9 10 -20
0 -11 5 -20 10 -20 6 0 10 -7 10 -15 0 -8 9 -30 20 -50 11 -20 20 -42 20 -50
0 -8 5 -15 10 -15 6 0 10 -9 10 -20 0 -11 5 -20 10 -20 6 0 10 -7 10 -15 0 -9
9 -33 20 -54 10 -21 16 -41 13 -45 -4 -3 -43 -6 -88 -6 l-81 0 -22 45 -22 45
-155 0 c-150 0 -155 -1 -155 -21 0 -11 -4 -17 -10 -14 -5 3 -10 -1 -10 -10 0
-35 -26 -45 -116 -45 -69 0 -85 3 -76 12 7 7 12 20 12 30 0 10 5 18 10 18 6 0
10 9 10 20 0 11 5 20 10 20 6 0 10 9 10 20 0 11 5 20 10 20 6 0 10 9 10 20 0
11 5 20 10 20 6 0 10 9 10 20 0 11 5 20 11 20 7 0 9 12 7 30 -4 24 -1 30 10
25 11 -4 13 1 10 19 -4 17 -1 23 9 19 8 -3 13 2 13 16 0 12 5 21 10 21 6 0 10
9 10 20 0 11 5 20 10 20 6 0 10 9 10 20 0 11 5 20 10 20 6 0 10 12 10 26 0 14
4 23 10 19 6 -3 10 0 10 7 0 8 5 25 12 39 11 24 16 25 115 28 57 1 112 -1 123
-4z m862 -6 c28 -15 68 -55 68 -69 0 -5 5 -10 10 -10 6 0 10 -14 10 -31 0 -17
4 -28 10 -24 6 4 10 -42 10 -129 0 -84 -4 -136 -10 -136 -5 0 -10 -13 -10 -30
0 -16 -5 -30 -11 -30 -7 0 -9 -9 -6 -21 4 -16 3 -18 -9 -8 -11 9 -14 7 -14
-14 0 -20 -4 -24 -20 -20 -11 3 -20 0 -20 -6 0 -8 -81 -11 -280 -11 l-280 0 0
275 0 275 266 0 c178 0 272 -4 286 -11z m318 -265 l0 -274 -80 0 -80 0 0 274
0 274 80 0 80 1 0 -275z m326 261 c4 -8 10 -12 15 -9 5 3 9 -4 9 -15 0 -12 5
-21 10 -21 6 0 10 -7 10 -15 0 -8 5 -15 10 -15 6 0 10 -7 10 -15 0 -8 4 -15 9
-15 5 0 13 -9 16 -20 4 -11 17 -31 29 -43 22 -22 26 -29 26 -47 0 -5 7 -10 15
-10 8 0 14 -3 13 -7 -1 -5 2 -18 6 -31 5 -16 13 -21 23 -17 13 4 14 3 3 -10
-11 -13 -9 -15 11 -16 13 0 18 -3 12 -6 -7 -2 -13 -11 -13 -19 0 -9 5 -12 10
-9 6 3 10 -3 10 -14 0 -12 5 -21 10 -21 6 0 10 -8 10 -17 0 -16 2 -16 10 -3 6
9 10 94 9 210 l-2 195 59 3 c111 6 101 32 103 -278 l2 -270 -136 0 c-137 0
-165 7 -165 40 0 15 -26 41 -34 33 -3 -4 -6 3 -6 15 0 12 -4 22 -10 22 -5 0
-10 6 -10 13 0 7 -9 23 -20 35 -11 12 -20 24 -20 27 0 3 -12 24 -27 48 -15 23
-26 45 -25 50 1 4 -2 7 -8 7 -6 0 -10 9 -10 21 0 11 -4 17 -10 14 -5 -3 -10 1
-10 10 0 9 -4 13 -10 10 -5 -3 -10 3 -10 14 0 12 -4 21 -10 21 -6 0 -10 -70
-10 -190 l0 -190 -80 0 -80 0 0 268 c0 148 3 272 7 275 3 4 60 7 125 7 96 0
120 -3 124 -15z m1030 0 c18 -7 36 -10 40 -7 4 4 4 1 0 -5 -4 -7 -2 -13 3 -13
6 0 11 -7 11 -15 0 -8 5 -15 10 -15 6 0 10 -28 10 -65 l0 -66 -72 3 c-65 3
-74 6 -83 26 -9 21 -14 22 -145 22 -93 0 -140 -4 -148 -12 -18 -18 -16 -215 2
-234 11 -11 46 -14 149 -14 l135 0 4 25 5 25 -88 0 -89 0 0 60 0 60 175 0
c160 0 175 -1 175 -17 0 -15 -2 -16 -10 -3 -7 10 -10 -27 -10 -113 0 -71 -4
-126 -8 -123 -5 3 -15 -4 -22 -15 -8 -10 -20 -19 -27 -19 -7 0 -13 -4 -13 -10
0 -6 -88 -10 -243 -10 -229 0 -243 1 -257 19 -7 11 -17 18 -22 15 -4 -3 -8 2
-8 11 0 9 -4 13 -10 10 -7 -4 -10 70 -10 215 0 145 3 219 10 215 6 -3 10 1 10
10 0 9 5 13 10 10 6 -3 10 1 10 9 0 9 3 15 8 15 20 -3 33 2 27 11 -10 17 431
12 471 -5z m1372 -537 c7 -7 12 -20 12 -30 0 -14 8 -18 40 -18 43 0 70 -26 48
-48 -17 -17 -38 -15 -44 3 -4 8 -17 15 -30 15 -22 0 -24 -5 -26 -47 -1 -42 -1
-125 1 -145 1 -10 13 -10 30 1 9 6 13 30 13 75 0 67 0 67 27 64 25 -3 26 -6
27 -63 1 -80 2 -85 18 -85 22 0 28 29 21 96 -8 67 1 82 35 64 17 -9 20 -21 20
-79 0 -76 5 -87 29 -64 12 12 15 32 13 75 -2 46 1 60 14 65 23 8 33 -13 27
-58 -7 -47 12 -53 21 -8 12 64 91 91 122 44 12 -18 11 -26 -4 -55 -9 -19 -27
-39 -40 -45 -24 -11 -24 -28 1 -33 16 -3 50 25 60 49 5 12 7 12 15 0 25 -35
-45 -99 -91 -85 -12 3 -34 19 -49 35 -34 36 -43 36 -64 -1 -10 -16 -24 -32
-32 -35 -16 -6 -52 12 -52 26 0 6 -12 1 -26 -10 -31 -25 -47 -26 -63 -7 -10
12 -16 12 -41 -2 -27 -15 -30 -15 -48 1 -18 17 -21 17 -50 0 -29 -17 -31 -17
-51 1 -20 18 -22 18 -41 1 -17 -15 -24 -16 -45 -7 -14 6 -25 16 -25 21 0 5
-18 0 -39 -12 -37 -20 -41 -21 -73 -5 -29 13 -37 14 -53 2 -52 -38 -91 7 -88
103 1 35 -1 63 -5 63 -4 0 -15 -26 -24 -58 -22 -75 -49 -109 -99 -122 -78 -21
-141 20 -160 106 -11 50 -11 56 17 111 35 68 85 101 131 86 37 -13 62 -56 47
-80 -17 -27 -38 -21 -44 12 -13 74 -90 1 -90 -84 0 -103 77 -149 134 -81 33
40 52 106 35 126 -16 19 -4 44 21 44 13 0 20 -7 20 -20 0 -15 7 -20 28 -20 42
0 48 -10 47 -85 0 -60 3 -70 19 -73 16 -3 18 0 12 30 -7 41 7 96 31 114 20 15
62 18 79 6 36 -24 11 -112 -35 -127 -29 -9 -16 -25 21 -25 22 0 29 4 25 14 -4
9 -1 13 6 10 8 -3 13 5 15 19 3 41 30 92 54 104 76 37 99 21 99 -70 1 -69 6
-81 28 -68 9 6 14 35 15 89 l1 81 -34 3 c-49 4 -50 24 -1 32 30 5 40 11 40 25
0 46 23 64 48 39z m-1343 -8 c-4 -6 6 -10 23 -10 25 0 29 -3 25 -20 -5 -20
-14 -20 -2199 -20 -1904 0 -2194 2 -2194 14 0 8 5 18 11 21 6 4 979 6 2164 6
1466 -1 2155 2 2160 9 3 5 8 10 11 10 3 0 2 -4 -1 -10z m-3705 -130 l0 -40
-67 -2 -68 -2 68 -3 67 -4 0 -59 0 -60 -100 0 -100 0 0 100 0 99 98 4 c53 1
98 4 100 5 1 1 2 -16 2 -38z m3143 29 c68 -1 87 -5 87 -16 0 -8 5 -11 10 -8
17 10 13 -144 -4 -161 -11 -10 -40 -14 -106 -14 -113 0 -120 6 -120 91 0 50 4
65 21 80 12 10 18 23 13 30 -4 7 -3 9 3 6 5 -3 48 -7 96 -8z m-3565 -31 c-3
-30 -6 -33 -40 -36 l-38 -3 0 -65 0 -65 -42 3 -42 3 3 63 2 62 -30 0 c-29 0
-31 3 -31 35 l0 35 111 0 110 0 -3 -32z m884 9 c36 -31 29 -67 -13 -67 -15 0
-31 5 -34 10 -3 6 -28 10 -56 10 l-49 0 0 -35 0 -35 56 0 c36 0 53 4 49 11 -5
7 6 9 31 7 41 -3 52 -25 31 -59 -10 -17 -25 -19 -119 -19 -91 0 -108 2 -108
16 0 8 -4 13 -9 10 -5 -4 -11 25 -13 64 -2 51 0 70 10 70 6 0 12 7 12 16 0 8
5 12 10 9 6 -3 10 -1 10 4 0 7 31 11 83 11 71 0 85 -3 109 -23z m316 -19 c3
-38 4 -38 45 -37 40 1 40 2 12 9 l-30 8 33 1 c24 1 32 6 32 19 0 26 20 42 52
42 l28 0 0 -100 0 -100 -40 0 c-38 0 -40 2 -40 30 0 29 -2 30 -45 30 -43 0
-45 -1 -45 -30 0 -28 -3 -30 -35 -30 l-35 0 0 101 0 100 33 -3 c29 -3 32 -6
35 -40z m508 28 c8 -8 14 -22 14 -30 0 -19 11 -20 30 -3 11 9 11 8 0 -7 -12
-15 -12 -20 -2 -23 6 -3 10 -8 8 -12 -3 -4 0 -13 5 -21 7 -11 9 -7 8 15 -4 93
1 101 59 89 21 -4 22 -9 22 -99 l0 -95 -58 0 c-54 0 -58 2 -70 30 -8 17 -18
28 -23 24 -5 -3 -9 4 -9 15 0 12 -4 21 -9 21 -5 0 -12 8 -14 18 -3 9 -5 -11
-6 -45 l-1 -63 -32 0 -33 0 3 100 3 100 45 0 c26 0 52 -6 60 -14z m589 -2 c23
-15 25 -23 25 -86 0 -45 -5 -74 -14 -83 -9 -10 -49 -15 -135 -17 -91 -2 -118
0 -106 8 11 8 15 31 15 88 0 47 5 82 13 91 18 21 170 20 202 -1z m315 -54 l0
-69 63 -3 c59 -3 62 -4 65 -30 l3 -28 -100 0 -101 0 0 100 0 100 35 0 35 0 0
-70z m578 50 c18 -17 22 -32 22 -86 0 -91 -5 -94 -134 -94 l-106 0 0 85 c0 55
5 91 13 100 8 10 37 14 98 15 72 0 89 -3 107 -20z m795 0 c9 -11 17 -23 17
-26 0 -3 6 -12 14 -19 11 -12 15 -10 27 13 22 43 35 52 73 52 43 0 44 -9 11
-57 -13 -20 -21 -41 -18 -47 3 -6 2 -8 -2 -3 -16 14 -45 -25 -45 -60 0 -31 -2
-33 -35 -33 -32 0 -35 3 -35 28 0 15 -10 39 -23 54 -57 69 -67 84 -67 101 0
25 60 23 83 -3z m-5934 -549 c-6 -2 -145 -92 -308 -201 -163 -108 -348 -230
-411 -272 -94 -61 -724 -477 -990 -653 -62 -41 -90 -47 -90 -20 0 8 9 17 20
20 11 4 17 11 14 17 -4 7 -2 8 5 4 10 -7 72 29 79 46 2 4 8 8 13 8 11 0 223
141 227 152 2 4 8 8 14 8 5 0 35 17 66 39 32 21 82 55 112 74 73 47 142 94
157 107 7 5 15 10 18 10 6 0 113 70 185 121 14 9 165 109 335 221 171 113 337
222 369 244 33 21 66 44 75 49 9 6 18 12 21 15 3 3 21 16 40 28 33 20 36 20
48 4 9 -12 10 -18 1 -21z m1491 -10 c3 -4 12 -10 21 -16 9 -5 42 -28 75 -49
32 -22 199 -131 369 -244 171 -112 321 -212 335 -221 72 -51 179 -121 185
-121 3 0 11 -5 18 -10 15 -13 84 -60 157 -107 30 -19 80 -53 112 -74 31 -22
61 -39 66 -39 6 0 12 -4 14 -8 4 -11 216 -152 227 -152 5 0 11 -4 13 -8 7 -17
69 -53 79 -46 7 4 9 3 5 -4 -3 -6 3 -13 14 -17 11 -3 20 -12 20 -20 0 -27 -28
-21 -90 20 -266 176 -896 592 -990 653 -63 42 -249 165 -413 274 -164 109
-303 198 -308 198 -6 0 -5 8 1 20 l11 21 37 -23 c20 -12 39 -24 42 -27z m5069
10 c-6 -2 -145 -92 -308 -201 -163 -108 -348 -230 -411 -272 -94 -61 -724
-477 -990 -653 -62 -41 -90 -47 -90 -20 0 8 9 17 20 20 11 4 17 11 14 17 -4 7
-2 8 5 4 10 -7 72 29 79 46 2 4 8 8 13 8 11 0 223 141 227 152 2 4 8 8 14 8 5
0 35 17 66 39 32 21 82 55 112 74 73 47 142 94 157 107 7 5 15 10 18 10 6 0
113 70 185 121 14 9 165 109 335 221 171 113 337 222 369 244 33 21 66 44 75
49 9 6 18 12 21 15 3 3 21 16 40 28 33 20 36 20 48 4 9 -12 10 -18 1 -21z
m-2420 -1463 c11 -6 16 -19 14 -29 -4 -15 2 -18 38 -21 37 -2 45 -7 47 -26 4
-29 -26 -42 -43 -19 -7 10 -22 17 -34 17 -18 0 -21 -6 -23 -52 -4 -111 1 -150
22 -146 11 2 16 21 20 73 5 68 6 70 32 71 28 1 28 1 25 -62 -1 -41 3 -67 11
-76 22 -22 32 10 28 85 l-5 68 27 -3 c25 -3 27 -7 30 -58 3 -69 10 -100 22
-100 14 0 24 40 24 100 1 48 3 55 21 55 18 0 20 -6 18 -47 -3 -55 12 -65 21
-15 10 53 104 93 120 51 17 -43 -15 -114 -51 -114 -20 0 -11 -24 11 -28 23 -5
56 26 56 51 0 16 3 17 15 7 22 -18 19 -34 -14 -69 -40 -43 -71 -41 -123 10
l-42 40 -18 -35 c-23 -44 -56 -56 -79 -28 -16 21 -17 21 -34 2 -21 -23 -48
-26 -64 -6 -10 12 -16 12 -41 -2 -27 -16 -30 -15 -49 2 -20 18 -22 18 -39 3
-23 -21 -41 -21 -64 0 -17 15 -19 15 -38 -2 -17 -15 -24 -16 -45 -7 -14 6 -25
16 -25 22 0 5 -15 1 -32 -10 -39 -23 -67 -25 -93 -6 -16 12 -22 12 -42 -1 -51
-34 -96 21 -86 105 8 70 -11 72 -30 3 -44 -158 -209 -176 -257 -28 -28 89 40
206 120 207 64 0 106 -56 65 -90 -19 -16 -31 -7 -39 31 -13 68 -86 -7 -86 -90
0 -98 67 -145 126 -89 33 30 60 107 45 129 -18 30 -13 49 13 49 15 0 26 -7 29
-20 3 -13 14 -20 30 -20 35 0 41 -13 40 -93 -1 -59 1 -68 15 -65 11 2 16 12
15 28 -4 45 8 91 28 111 27 27 75 25 94 -5 14 -21 14 -28 1 -59 -8 -20 -24
-40 -35 -47 -29 -15 -26 -30 5 -30 29 0 53 24 54 53 0 21 27 75 46 95 9 8 30
12 56 10 l43 -3 3 -70 c5 -126 43 -114 46 14 l1 81 -37 0 c-53 0 -51 25 2 34
36 6 40 9 40 34 0 43 14 52 49 30z"/>
<path d="M5130 3898 l0 -48 138 0 c92 0 132 3 122 10 -13 8 -12 10 3 10 12 0
17 8 17 29 0 37 -14 41 -163 44 l-117 2 0 -47z"/>
<path d="M5973 3961 c-7 -12 -13 -28 -13 -36 0 -8 -4 -15 -10 -15 -5 0 -10 -9
-10 -20 0 -11 -4 -20 -10 -20 -5 0 -10 -9 -10 -20 0 -11 -4 -20 -10 -20 -5 0
-10 -9 -10 -19 0 -11 -6 -22 -12 -24 -7 -3 31 -6 85 -6 80 -1 97 2 97 14 0 8
-6 15 -14 15 -9 0 -12 7 -9 20 3 11 0 20 -6 20 -6 0 -11 9 -11 20 0 11 -4 20
-10 20 -5 0 -10 9 -10 20 0 11 -4 20 -9 20 -5 0 -11 11 -13 25 -3 25 -3 25
-15 6z"/>
<path d="M6698 3942 l-138 -3 0 -119 0 -120 135 0 c132 0 157 5 192 37 15 14
19 198 4 189 -5 -4 -11 -2 -13 3 -5 14 -36 16 -180 13z"/>
<path d="M11476 83 l-119 -78 118 -3 c65 -1 120 -1 122 1 2 3 3 39 1 81 l-3
76 -119 -77z"/>
</g>
</svg>
